<svg xmlns="http://www.w3.org/2000/svg" width="32" height="48" viewBox="0 0 32 48"><style>.st0{fill:#fff}.st1{fill:#b3b3b3}</style><path class="st0" d="M21 14c1.1 0 2 .9 2 2v18c0 1.1-.9 2-2 2H3c-1.1 0-2-.9-2-2V16c0-1.1.9-2 2-2h18m0-1H3c-1.7 0-3 1.3-3 3v18c0 1.7 1.3 3 3 3h18c1.7 0 3-1.3 3-3V16c0-1.7-1.3-3-3-3z"/><path class="st1" d="M21 13c1.1 0 2 .9 2 2v18c0 1.1-.9 2-2 2H3c-1.1 0-2-.9-2-2V15c0-1.1.9-2 2-2h18m0-1H3c-1.7 0-3 1.3-3 3v18c0 1.7 1.3 3 3 3h18c1.7 0 3-1.3 3-3V15c0-1.7-1.3-3-3-3z"/></svg>