<svg xmlns="http://www.w3.org/2000/svg" width="32" height="48" viewBox="0 0 32 48"><style>.st0{fill:#fff}.st1{fill:#b3b3b3}.st2,.st3{opacity:.25;fill:#16a085}.st3{opacity:.75}.st4{fill:#bdc3c7}</style><path class="st0" d="M21 14c1.1 0 2 .9 2 2v18c0 1.1-.9 2-2 2H3c-1.1 0-2-.9-2-2V16c0-1.1.9-2 2-2h18m0-1H3c-1.7 0-3 1.3-3 3v18c0 1.7 1.3 3 3 3h18c1.7 0 3-1.3 3-3V16c0-1.7-1.3-3-3-3z"/><path class="st1" d="M21 13c1.1 0 2 .9 2 2v18c0 1.1-.9 2-2 2H3c-1.1 0-2-.9-2-2V15c0-1.1.9-2 2-2h18m0-1H3c-1.7 0-3 1.3-3 3v18c0 1.7 1.3 3 3 3h18c1.7 0 3-1.3 3-3V15c0-1.7-1.3-3-3-3z"/><path class="st2" d="M29.4.2c-1.1-.2-2.1.4-2.8 1.2-.7.8-1.4 1.7-2 2.6-.1.1-.1.2-.1.3l-.1.1c-.9 1.2-1.7 2.4-2.5 3.7-.8 1.3-1.5 2.6-2.3 4-1.5 2.6-2.9 5.3-4.2 8.1-.7 1.4-1.3 2.8-1.9 4.3h-.4s-.2-.1-.1-.1c-.2-.1-.4-.3-.5-.5-.4-.6-.8-1.3-1.1-1.9l-1.2-2.1c-.3-.6-.7-1.2-1.2-1.7-.5-.6-1.2-.9-2-1-.7-.1-1.5.2-2.2.5-.8.3-1.5.8-1.6 1.8-.1.8.3 1.5.8 2.1.2.2.4.4.5.6.5 1.2 1.3 2.2 2.3 3 .1.4.2.7.4 1 .3.5.7.9 1.1 1.3.4 1.3 1.1 2.5 2.1 3.4.2.4.5.7.8 1 1.1 1.1 2.9 1.4 4.4 1 .8-.2 1.5-.6 1.9-1.3.3-.7.4-1.4.4-2.1 0-.7-.1-1.4 0-2.1.1-.7.3-1.5.6-2.3.3-.8.6-1.6.9-2.3l.4-1.1c.1-.4.2-.7.3-1.2.2-.6.7-1.4 1-2 .4-.7.8-1.5 1.3-2.2l2.6-4.6 2.9-5.1c.9-1.6 1.8-3.2 2.2-5 0-.8-.2-1.3-.7-1.4z"/><path class="st3" d="M4.6 17.8s-1.6.9-1.1 2.5c0 0 .4 1 1.1 1.2s4.7 7.2 5.2 7.6c.5.4 1.3 1.4 1.3 1.9 0 .6.9 2.2 3.4 2.3s3.4-1.4 3.5-2 0-1.6-.5-2.2c-.6-.6 4.5-14.9 8.8-20.5L29.4.8s-2.3-.2-4 2.1C23.6 5.2 15.2 19.7 13.7 24c0 0 .2.7-.2.9-.4.2-.8-.2-1.2-.9-.4-.7-3-4.4-3-4.4s.2-.9-1-1.6c-1.2-.7-2.4-.8-3.7-.2z"/></svg>